<?xml version="1.0" encoding="utf-8"?>
<!-- Generator: Adobe Illustrator 28.4.1, SVG Export Plug-In . SVG Version: 6.00 Build 0)  -->
<svg version="1.1" xmlns="http://www.w3.org/2000/svg" xmlns:xlink="http://www.w3.org/1999/xlink" x="0px" y="0px"
	 width="900.1" height="279.6" viewBox="300 248.7 900.1 279.6" style="enable-background:new 300 248.7 900.1 279.6;" xml:space="preserve">
<style type="text/css">
	.st0{display:none;}
	.st1{display:inline;fill:#A550FF;}
	.st2{fill:none;stroke:#000000;stroke-width:25;stroke-miterlimit:10;}
	.st3{opacity:0.97;}
</style>
<g id="Capa_2" class="st0">
	<rect y="0" class="st1" width="1500" height="777.1"/>
</g>
<g id="Capa_1">
	<path class="st2" d="M1452.9,32"/>
	<g>
		<g>
			<g>
				<path d="M597.7,325.6v7.9h64.3v57.7h-64.3v7.9h98v58h-98h-77v-58v-7.9v-57.7v-7.9v-58h77h98v58H597.7z"/>
				<path d="M377,267.6l29.5,46.2v-46.2h77v189.5h-77L377,410.9v46.2h-77V267.6H377z"/>
				<path d="M1115.5,264.6h-103.6l-59.7,189.5h80.7l5.9-18.4h50.2l5.6,18.4h81L1115.5,264.6z M1063.9,415.9
					c-5-49.3-9-53.9-53.3-59.4c44.2-5.6,48.3-10.1,53.3-59.4c5,49.3,9,53.9,53.3,59.4C1072.9,362,1068.9,366.5,1063.9,415.9z"/>
				<g>
					<path d="M916.3,450.2c0,2.9-2.2,4.7-6.5,5.3c-7.8,1.1-16,1.6-24.7,1.6c-9.2,0-16.9-0.5-23.1-1.6c-1.6-0.3-4-1.6-7.3-3.9
						c-6.4-9.2-16.3-23-29.4-41.3c-3.3,3.9-14.1,17.5-32.4,40.7c-1.7,2.4-4.1,3.9-7.3,4.5c-4.6,1.1-11.8,1.6-21.7,1.6
						c-20.8,0-31.2-2.3-31.2-6.9c0-3.8,0.1-9.6,0.2-17.5s0.2-13.7,0.2-17.7c0-2.2,1.2-4.7,3.6-7.3c10.3-10.7,25.4-26.8,45.4-48.4
						c-9.2-8.8-18.4-17.6-27.4-26.5c-14.6-14.3-21.9-22.8-21.9-25.5v-34.7c0-3.4,2.3-5.1,6.9-5.1c5.3,0,13.1,0.2,23.6,0.6
						c10.5,0.4,18.3,0.6,23.6,0.6c2.6,0,5.1,1.4,7.3,4.3c7.2,9.6,17.4,21.8,30.4,36.5c11.8-14.3,21.3-26.5,28.2-36.5
						c2-2.6,4.4-3.9,7.3-3.9c5.5,0,13.8-0.3,24.7-0.8c10.9-0.5,19.1-0.8,24.7-0.8c4.6,0,6.9,1.7,6.9,5.1v34.7c0,2.5-1.1,4.8-3.4,6.9
						c-10,10.1-24.8,25.5-44.4,46.2c10,10.4,24.8,26.3,44.4,47.6c2.2,2.5,3.4,4.9,3.4,7.3V450.2z"/>
				</g>
			</g>
			<g>
				<path d="M1148.5,248.8h18.5v7.9h-5.3v16.2h-7.9v-16.2h-5.3V248.8z"/>
				<path d="M1181.5,256.7h-2.6v16.2h-7.9v-24.2h29.1v24.2h-7.9v-16.2h-2.6v16.2h-7.9V256.7z"/>
			</g>
		</g>
		<g>
			<path class="st3" d="M424.5,491.2h2.7v7.9h4.4v2.4h-4.4v19h-2.7v-19h-3.8v-2.4h3.8V491.2z"/>
			<path class="st3" d="M443.4,499.1h2.7v10c0,2.4,0.1,4.1,0.4,5c0.4,1.3,1.1,2.3,2.3,3.1c1.1,0.8,2.4,1.1,4,1.1
				c1.5,0,2.8-0.4,3.9-1.1c1.1-0.7,1.8-1.7,2.2-2.9c0.3-0.8,0.4-2.6,0.4-5.2v-10h2.8v10.5c0,2.9-0.3,5.2-1,6.7s-1.7,2.7-3.1,3.5
				c-1.4,0.8-3.1,1.3-5.2,1.3s-3.8-0.4-5.2-1.3c-1.4-0.8-2.4-2-3.1-3.5s-1-3.8-1-6.8V499.1z"/>
			<path class="st3" d="M497.6,528.3h-5.2l4-29.2h5.2l-0.3,2.3c1.1-1.1,2.2-1.8,3.2-2.2c1-0.4,2.1-0.6,3.3-0.6c2.8,0,5,1,6.7,3.1
				c1.6,2.1,2.5,4.5,2.5,7.2c0,2.1-0.5,4.1-1.6,6c-1.1,1.9-2.5,3.4-4.3,4.5c-1.8,1.1-3.6,1.6-5.6,1.6c-1.3,0-2.5-0.3-3.6-0.9
				s-2-1.5-2.7-2.6L497.6,528.3z M506.3,503.2c-1.3,0-2.4,0.3-3.3,0.9c-1,0.6-1.8,1.5-2.4,2.7c-0.6,1.2-1,2.5-1,3.8
				c0,1.7,0.5,3,1.4,4.1c1,1,2.2,1.5,3.8,1.5c1.8,0,3.4-0.7,4.7-2.1c1.3-1.4,1.9-3.1,1.9-5.3c0-1.7-0.5-3-1.5-4.1
				S507.9,503.2,506.3,503.2z"/>
			<path class="st3" d="M540.5,498.5c1.9,0,3.6,0.4,5.2,1.3c1.6,0.9,2.8,2.1,3.6,3.7c0.9,1.6,1.3,3.4,1.3,5.4c0,3.3-1.2,6.2-3.6,8.5
				c-2.4,2.3-5.3,3.5-8.8,3.5c-3,0-5.5-0.9-7.3-2.8c-1.8-1.8-2.7-4.2-2.7-7.2c0-3.6,1.2-6.6,3.7-8.9
				C534.4,499.7,537.3,498.5,540.5,498.5z M540.1,503.5c-2.1,0-3.8,0.8-4.9,2.3c-1.1,1.5-1.7,3.2-1.7,5c0,1.6,0.5,2.9,1.4,3.9
				c0.9,1,2.2,1.5,3.7,1.5c2.2,0,3.9-0.7,5-2.2c1.2-1.5,1.7-3.2,1.7-5.1c0-1.6-0.5-2.8-1.5-3.8C543,504,541.7,503.5,540.1,503.5z"/>
			<path class="st3" d="M565.7,491.2h5.2l-1.1,7.9h3.3l-0.6,4.5h-3.3l-2.3,16.8h-5.2l2.3-16.8h-2.6l0.6-4.5h2.6L565.7,491.2z"/>
			<path class="st3" d="M597.9,514.2l4.6,2.4c-1,1.4-2.4,2.4-4.1,3.2c-1.7,0.8-3.6,1.2-5.7,1.2c-3.3,0-5.8-0.9-7.7-2.7
				c-1.9-1.8-2.8-4.3-2.8-7.3c0-3.5,1.2-6.4,3.5-8.8c2.3-2.4,5.2-3.6,8.5-3.6c2,0,3.8,0.4,5.4,1.3c1.6,0.9,2.8,2.2,3.7,3.8
				c0.9,1.7,1.4,3.5,1.4,5.5c0,0.6-0.1,1.3-0.2,2.2h-17c0.1,1.5,0.5,2.7,1.5,3.5s2.2,1.3,3.8,1.3
				C594.6,516.2,596.4,515.5,597.9,514.2z M599.2,507.5c-0.4-1.3-1-2.3-2-3c-0.9-0.7-2-1-3.3-1c-1.3,0-2.4,0.3-3.5,1
				c-1,0.7-1.8,1.7-2.4,2.9H599.2z"/>
			<path class="st3" d="M618.6,499.1h5.2l-0.3,2.2c2-1.8,4.1-2.7,6.3-2.7c1.8,0,3.4,0.6,4.5,1.8c1.2,1.2,1.8,2.7,1.8,4.4
				c0,0.8-0.1,2.1-0.3,3.8l-1.6,12h-5.2l1.6-11.7c0.2-1.2,0.2-2.1,0.2-2.7c0-0.9-0.2-1.5-0.7-2c-0.5-0.5-1.2-0.7-2.1-0.7
				c-0.9,0-1.8,0.3-2.6,0.9s-1.6,1.5-2,2.5c-0.5,1.1-0.9,3.1-1.3,6.1l-1,7.6h-5.2L618.6,499.1z"/>
			<path class="st3" d="M670.2,503.5l-4.4,2.4c-1.3-1.6-2.9-2.4-5.1-2.4c-1.4,0-2.7,0.3-3.8,0.9c-1.1,0.6-2,1.5-2.6,2.6
				s-1,2.4-1,3.6c0,1.6,0.5,3,1.6,4c1,1,2.5,1.5,4.3,1.5c2.5,0,4.4-0.8,5.7-2.5l4.1,2.9c-1.2,1.4-2.6,2.5-4.4,3.3
				c-1.7,0.8-3.7,1.2-5.8,1.2c-3.3,0-5.9-0.9-7.9-2.7c-1.9-1.8-2.9-4.3-2.9-7.3c0-3.4,1.2-6.4,3.6-8.8c2.4-2.4,5.4-3.6,9.2-3.6
				C665,498.5,668.2,500.2,670.2,503.5z"/>
			<path class="st3" d="M683.8,499.1h5.2l-2.9,21.4h-5.2L683.8,499.1z M687.4,490.4c0.9,0,1.7,0.3,2.3,1c0.6,0.6,1,1.4,1,2.3
				s-0.3,1.7-1,2.3c-0.6,0.6-1.4,1-2.3,1c-0.9,0-1.7-0.3-2.3-1c-0.6-0.6-1-1.4-1-2.3s0.3-1.7,1-2.3
				C685.8,490.7,686.5,490.4,687.4,490.4z"/>
			<path class="st3" d="M717.9,499.1h5.2l-3,21.4H715l0.3-2.3c-1.1,1.1-2.2,1.8-3.2,2.2c-1,0.4-2.1,0.6-3.3,0.6
				c-2.8,0-5.1-1-6.8-3.1c-1.7-2.1-2.5-4.5-2.5-7.3c0-2.1,0.5-4.1,1.6-6c1.1-1.9,2.5-3.4,4.3-4.5c1.8-1.1,3.7-1.6,5.7-1.6
				c1.3,0,2.5,0.3,3.7,0.9c1.1,0.6,2,1.5,2.8,2.6L717.9,499.1z M710,516.3c1.3,0,2.4-0.3,3.4-0.9c1-0.6,1.8-1.5,2.4-2.7
				c0.7-1.2,1-2.5,1-3.8c0-1.7-0.5-3.1-1.5-4.1c-1-1-2.3-1.5-3.9-1.5c-1.9,0-3.5,0.7-4.8,2.1c-1.3,1.4-2,3.1-2,5.3
				c0,1.7,0.5,3,1.5,4C707.2,515.8,708.5,516.3,710,516.3z"/>
			<path class="st3" d="M737.3,490.8h5.2l-4,29.6h-5.2L737.3,490.8z"/>
			<path class="st3" d="M753.6,515.2l4.1,2.4l-5.4,7.1l-2.5-1.5L753.6,515.2z"/>
			<path class="st3" d="M802.4,498.5c3.3,0,6,1.2,8.2,3.6c2,2.2,3,4.7,3,7.7c0,3-1,5.6-3.1,7.8c-2.1,2.2-4.8,3.3-8,3.3
				c-3.3,0-6-1.1-8-3.3c-2.1-2.2-3.1-4.8-3.1-7.8c0-3,1-5.5,3-7.7C796.4,499.7,799.1,498.5,802.4,498.5z M802.4,501.2
				c-2.3,0-4.2,0.8-5.9,2.5c-1.6,1.7-2.5,3.7-2.5,6.1c0,1.5,0.4,3,1.1,4.3c0.7,1.3,1.8,2.4,3,3.1c1.3,0.7,2.7,1.1,4.2,1.1
				s2.9-0.4,4.2-1.1c1.3-0.7,2.3-1.8,3-3.1c0.7-1.3,1.1-2.8,1.1-4.3c0-2.4-0.8-4.4-2.5-6.1S804.7,501.2,802.4,501.2z"/>
			<path class="st3" d="M826.7,499.1h2.7v3.9c1.1-1.5,2.3-2.6,3.7-3.4c1.4-0.7,3-1.1,4.7-1.1c3,0,5.6,1.1,7.8,3.3
				c2.2,2.2,3.2,4.8,3.2,7.9c0,3.1-1.1,5.8-3.2,8c-2.1,2.2-4.7,3.3-7.7,3.3c-1.7,0-3.3-0.4-4.7-1.1c-1.4-0.7-2.7-1.8-3.9-3.2v11.5
				h-2.7V499.1z M837.7,501.2c-2.4,0-4.4,0.8-6,2.5c-1.6,1.7-2.4,3.7-2.4,6.2c0,1.6,0.4,3.1,1.1,4.4c0.7,1.3,1.8,2.3,3.1,3.1
				c1.4,0.8,2.8,1.1,4.3,1.1c1.5,0,2.9-0.4,4.2-1.1c1.3-0.8,2.3-1.8,3.1-3.2c0.8-1.4,1.2-2.8,1.2-4.3c0-1.5-0.4-3-1.1-4.3
				c-0.8-1.4-1.8-2.4-3.1-3.2C840.7,501.6,839.2,501.2,837.7,501.2z"/>
			<path class="st3" d="M864.6,491.2h2.7v7.9h4.4v2.4h-4.4v19h-2.7v-19h-3.8v-2.4h3.8V491.2z"/>
			<path class="st3" d="M884.8,490.3c0.6,0,1.2,0.2,1.6,0.7c0.4,0.4,0.7,1,0.7,1.6c0,0.6-0.2,1.1-0.7,1.6c-0.4,0.4-1,0.7-1.6,0.7
				c-0.6,0-1.1-0.2-1.6-0.7c-0.4-0.4-0.7-1-0.7-1.6c0-0.6,0.2-1.2,0.7-1.6C883.6,490.5,884.2,490.3,884.8,490.3z M883.4,499.1h2.7
				v21.4h-2.7V499.1z"/>
			<path class="st3" d="M899.9,499.1h2.7v3.7c1-1.4,1.9-2.4,2.9-3c1.4-0.8,2.9-1.3,4.4-1.3c1,0,2,0.2,2.9,0.6
				c0.9,0.4,1.7,0.9,2.3,1.6c0.6,0.7,1.1,1.6,1.5,2.9c0.9-1.7,2.1-2.9,3.4-3.8c1.4-0.9,2.8-1.3,4.4-1.3c1.5,0,2.8,0.4,3.9,1.1
				c1.1,0.7,2,1.8,2.5,3.1c0.5,1.3,0.8,3.3,0.8,6v11.7H929v-11.7c0-2.3-0.2-3.9-0.5-4.7c-0.3-0.9-0.9-1.5-1.7-2.1
				c-0.8-0.5-1.7-0.8-2.8-0.8c-1.3,0-2.5,0.4-3.6,1.2c-1.1,0.8-1.9,1.8-2.4,3.1s-0.8,3.5-0.8,6.6v8.4h-2.7v-10.9
				c0-2.6-0.2-4.3-0.5-5.3c-0.3-0.9-0.9-1.7-1.7-2.2c-0.8-0.6-1.7-0.8-2.8-0.8c-1.3,0-2.5,0.4-3.6,1.1c-1.1,0.8-1.9,1.8-2.5,3.1
				c-0.5,1.3-0.8,3.3-0.8,5.9v9.1h-2.7V499.1z"/>
			<path class="st3" d="M946.6,490.3c0.6,0,1.2,0.2,1.6,0.7c0.4,0.4,0.7,1,0.7,1.6c0,0.6-0.2,1.1-0.7,1.6c-0.4,0.4-1,0.7-1.6,0.7
				c-0.6,0-1.1-0.2-1.6-0.7c-0.4-0.4-0.7-1-0.7-1.6c0-0.6,0.2-1.2,0.7-1.6C945.5,490.5,946,490.3,946.6,490.3z M945.3,499.1h2.7
				v21.4h-2.7V499.1z"/>
			<path class="st3" d="M960,499.1h15.7L963.6,518h11.7v2.4h-16.4l12.1-18.9H960V499.1z"/>
			<path class="st3" d="M1008.2,499.1v21.4h-2.7v-3.7c-1.2,1.4-2.4,2.5-3.9,3.2s-3,1.1-4.7,1.1c-3,0-5.6-1.1-7.7-3.3s-3.2-4.9-3.2-8
				c0-3.1,1.1-5.7,3.2-7.9c2.2-2.2,4.8-3.3,7.8-3.3c1.8,0,3.3,0.4,4.8,1.1c1.4,0.7,2.7,1.9,3.7,3.4v-3.9H1008.2z M997.2,501.2
				c-1.5,0-2.9,0.4-4.2,1.1c-1.3,0.8-2.3,1.8-3.1,3.2c-0.8,1.4-1.1,2.8-1.1,4.3c0,1.5,0.4,2.9,1.2,4.3c0.8,1.4,1.8,2.4,3.1,3.2
				c1.3,0.8,2.7,1.1,4.2,1.1c1.5,0,2.9-0.4,4.3-1.1c1.3-0.8,2.4-1.8,3.1-3.1c0.7-1.3,1.1-2.8,1.1-4.4c0-2.5-0.8-4.5-2.4-6.2
				C1001.6,502,999.6,501.2,997.2,501.2z"/>
			<path class="st3" d="M1043.7,490.8v29.6h-2.7v-3.7c-1.2,1.4-2.4,2.5-3.9,3.2s-3,1.1-4.7,1.1c-3,0-5.6-1.1-7.7-3.3
				c-2.1-2.2-3.2-4.9-3.2-8c0-3.1,1.1-5.7,3.2-7.9c2.2-2.2,4.8-3.3,7.8-3.3c1.8,0,3.3,0.4,4.8,1.1c1.4,0.7,2.7,1.9,3.7,3.4v-12.2
				H1043.7z M1032.8,501.2c-1.5,0-2.9,0.4-4.2,1.1c-1.3,0.8-2.3,1.8-3.1,3.2c-0.8,1.4-1.1,2.8-1.1,4.3c0,1.5,0.4,2.9,1.2,4.3
				c0.8,1.4,1.8,2.4,3.1,3.2c1.3,0.8,2.7,1.1,4.2,1.1c1.5,0,2.9-0.4,4.3-1.1c1.3-0.8,2.4-1.8,3.1-3.1c0.7-1.3,1.1-2.8,1.1-4.4
				c0-2.5-0.8-4.5-2.4-6.2C1037.1,502,1035.1,501.2,1032.8,501.2z"/>
			<path class="st3" d="M1068.1,498.5c3.3,0,6,1.2,8.2,3.6c2,2.2,3,4.7,3,7.7c0,3-1,5.6-3.1,7.8c-2.1,2.2-4.8,3.3-8,3.3
				c-3.3,0-6-1.1-8-3.3c-2.1-2.2-3.1-4.8-3.1-7.8c0-3,1-5.5,3-7.7C1062.1,499.7,1064.8,498.5,1068.1,498.5z M1068.1,501.2
				c-2.3,0-4.2,0.8-5.9,2.5s-2.5,3.7-2.5,6.1c0,1.5,0.4,3,1.1,4.3c0.7,1.3,1.8,2.4,3,3.1c1.3,0.7,2.7,1.1,4.2,1.1s2.9-0.4,4.2-1.1
				c1.3-0.7,2.3-1.8,3-3.1c0.7-1.3,1.1-2.8,1.1-4.3c0-2.4-0.8-4.4-2.5-6.1C1072.3,502.1,1070.4,501.2,1068.1,501.2z"/>
		</g>
	</g>
</g>
</svg>
